<mxfile host="app.diagrams.net" modified="2023-12-02T10:31:59.388Z" agent="Mozilla/5.0 (Macintosh; Intel Mac OS X 10_15_7) AppleWebKit/605.1.15 (KHTML, like Gecko) Version/16.6 Safari/605.1.15" version="22.1.5" etag="p7GK55grIPg0nbRy2-lN" type="github">
  <diagram name="Страница — 1" id="y2FGWyiGPt9LHHg-6NH0">
    <mxGraphModel>
      <root>
        <mxCell id="0" />
        <mxCell id="1" parent="0" />
      </root>
    </mxGraphModel>
  </diagram>
</mxfile>
